<?xml version="1.0" standalone="no"?>
<!DOCTYPE svg PUBLIC "-//W3C//DTD SVG 20010904//EN"
 "http://www.w3.org/TR/2001/REC-SVG-20010904/DTD/svg10.dtd">
<svg version="1.0" xmlns="http://www.w3.org/2000/svg"
 width="187.000000pt" height="187.000000pt" viewBox="0 0 187.000000 187.000000"
 preserveAspectRatio="xMidYMid meet">
<metadata>
Created by potrace 1.14, written by Peter Selinger 2001-2017
</metadata>
<g transform="translate(0.000000,187.000000) scale(0.100000,-0.100000)"
fill="#000000" stroke="none">
<path d="M879 1866 c-3 -3 -14 -7 -25 -9 -22 -4 -82 -32 -105 -50 -25 -19 -89
-107 -89 -122 0 -8 -4 -25 -9 -38 l-10 -25 -58 23 c-45 19 -73 23 -123 21 -87
-4 -145 -33 -225 -113 -213 -212 -274 -469 -145 -605 22 -23 40 -42 40 -43 0
-1 -14 -17 -31 -34 -46 -48 -72 -116 -75 -192 -3 -55 2 -76 30 -141 95 -218
281 -380 438 -381 43 -1 78 6 108 19 l45 21 18 -37 c23 -50 80 -104 136 -131
133 -65 464 1 585 116 64 61 96 120 103 189 3 38 1 77 -6 97 -6 18 -9 34 -7
36 2 2 30 5 62 7 33 2 80 13 105 24 49 21 112 79 135 123 30 59 55 177 59 278
9 221 -55 363 -193 422 -38 17 -62 20 -124 17 l-77 -5 18 26 c23 34 41 99 41
147 0 148 -147 285 -363 338 -69 17 -248 32 -258 22z"/>
</g>
</svg>
